<mxfile host="app.diagrams.net" agent="Mozilla/5.0 (Windows NT 10.0; Win64; x64) AppleWebKit/537.36 (KHTML, like Gecko) Chrome/141.0.0.0 Safari/537.36" version="28.2.8">
  <diagram id="ambiente-local" name="Ambiente Local - kind + LocalStack + Grafana">
    <mxGraphModel dx="1039" dy="615" grid="1" gridSize="10" guides="1" tooltips="1" connect="1" arrows="1" fold="1" page="1" pageScale="1" pageWidth="2000" pageHeight="1400" math="0" shadow="0">
      <root>
        <mxCell id="0" />
        <mxCell id="1" parent="0" />
        <mxCell id="main-title" value="AMBIENTE DE DESENVOLVIMENTO LOCAL" style="text;html=1;strokeColor=none;fillColor=none;align=center;verticalAlign=middle;whiteSpace=wrap;rounded=0;fontSize=28;fontStyle=1;fontColor=#1976D2;" parent="1" vertex="1">
          <mxGeometry x="400" y="20" width="1200" height="50" as="geometry" />
        </mxCell>
        <mxCell id="sub-title" value="kind (Kubernetes) + LocalStack (AWS Emulator) + Grafana Stack (Observabilidade)" style="text;html=1;strokeColor=none;fillColor=none;align=center;verticalAlign=middle;whiteSpace=wrap;rounded=0;fontSize=16;fontColor=#666666;" parent="1" vertex="1">
          <mxGeometry x="400" y="70" width="1200" height="30" as="geometry" />
        </mxCell>
        <mxCell id="docker-host-container" value="Docker Desktop (Windows/Linux Host)" style="rounded=1;whiteSpace=wrap;html=1;fillColor=#E3F2FD;strokeColor=#1976D2;fontSize=20;fontStyle=1;verticalAlign=top;align=center;spacingTop=25;" parent="1" vertex="1">
          <mxGeometry x="60" y="120" width="1880" height="1240" as="geometry" />
        </mxCell>
        <mxCell id="localstack-section" value="LocalStack Pro Container" style="rounded=1;whiteSpace=wrap;html=1;fillColor=#FFF3E0;strokeColor=#FF8F00;fontSize=18;fontStyle=1;verticalAlign=top;align=left;spacingLeft=30;spacingTop=20;" parent="1" vertex="1">
          <mxGeometry x="100" y="180" width="580" height="1120" as="geometry" />
        </mxCell>
        <mxCell id="ls-endpoint" value="localhost:4566" style="text;html=1;strokeColor=#FF8F00;fillColor=#FFF8E1;align=center;verticalAlign=middle;whiteSpace=wrap;rounded=1;fontSize=14;fontStyle=1;" parent="1" vertex="1">
          <mxGeometry x="500" y="190" width="150" height="30" as="geometry" />
        </mxCell>
        <mxCell id="aws-services-header" value="AWS Services Emulated" style="text;html=1;strokeColor=none;fillColor=none;align=left;verticalAlign=middle;whiteSpace=wrap;rounded=0;fontSize=16;fontStyle=1;fontColor=#E65100;" parent="1" vertex="1">
          <mxGeometry x="140" y="250" width="300" height="30" as="geometry" />
        </mxCell>
        <mxCell id="dynamodb-ls" value="" style="sketch=0;points=[[0,0,0],[0.25,0,0],[0.5,0,0],[0.75,0,0],[1,0,0],[0,1,0],[0.25,1,0],[0.5,1,0],[0.75,1,0],[1,1,0],[0,0.25,0],[0,0.5,0],[0,0.75,0],[1,0.25,0],[1,0.5,0],[1,0.75,0]];outlineConnect=0;fontColor=#232F3E;gradientColor=#4D72F3;gradientDirection=north;fillColor=#3334B9;strokeColor=#ffffff;dashed=0;verticalLabelPosition=bottom;verticalAlign=top;align=center;html=1;fontSize=12;fontStyle=1;aspect=fixed;shape=mxgraph.aws4.resourceIcon;resIcon=mxgraph.aws4.dynamodb;" parent="1" vertex="1">
          <mxGeometry x="160" y="320" width="100" height="100" as="geometry" />
        </mxCell>
        <mxCell id="ddb-label" value="DynamoDB&#xa;Table: orders" style="text;html=1;strokeColor=none;fillColor=none;align=center;verticalAlign=top;whiteSpace=wrap;rounded=0;fontSize=11;fontStyle=1;" parent="1" vertex="1">
          <mxGeometry x="135" y="430" width="150" height="30" as="geometry" />
        </mxCell>
        <mxCell id="s3-ls" value="" style="sketch=0;points=[[0,0,0],[0.25,0,0],[0.5,0,0],[0.75,0,0],[1,0,0],[0,1,0],[0.25,1,0],[0.5,1,0],[0.75,1,0],[1,1,0],[0,0.25,0],[0,0.5,0],[0,0.75,0],[1,0.25,0],[1,0.5,0],[1,0.75,0]];outlineConnect=0;fontColor=#232F3E;gradientColor=#60A337;gradientDirection=north;fillColor=#277116;strokeColor=#ffffff;dashed=0;verticalLabelPosition=bottom;verticalAlign=top;align=center;html=1;fontSize=12;fontStyle=1;aspect=fixed;shape=mxgraph.aws4.resourceIcon;resIcon=mxgraph.aws4.s3;" parent="1" vertex="1">
          <mxGeometry x="340" y="320" width="100" height="100" as="geometry" />
        </mxCell>
        <mxCell id="s3-label" value="S3 Buckets&#xa;Terraform State" style="text;html=1;strokeColor=none;fillColor=none;align=center;verticalAlign=top;whiteSpace=wrap;rounded=0;fontSize=11;fontStyle=1;" parent="1" vertex="1">
          <mxGeometry x="315" y="430" width="150" height="30" as="geometry" />
        </mxCell>
        <mxCell id="ecr-ls" value="" style="sketch=0;points=[[0,0,0],[0.25,0,0],[0.5,0,0],[0.75,0,0],[1,0,0],[0,1,0],[0.25,1,0],[0.5,1,0],[0.75,1,0],[1,1,0],[0,0.25,0],[0,0.5,0],[0,0.75,0],[1,0.25,0],[1,0.5,0],[1,0.75,0]];outlineConnect=0;fontColor=#232F3E;gradientColor=#F78E04;gradientDirection=north;fillColor=#D05C17;strokeColor=#ffffff;dashed=0;verticalLabelPosition=bottom;verticalAlign=top;align=center;html=1;fontSize=12;fontStyle=1;aspect=fixed;shape=mxgraph.aws4.resourceIcon;resIcon=mxgraph.aws4.ecr;" parent="1" vertex="1">
          <mxGeometry x="520" y="320" width="100" height="100" as="geometry" />
        </mxCell>
        <mxCell id="ecr-label" value="ECR Registries&#xa;backend, frontend" style="text;html=1;strokeColor=none;fillColor=none;align=center;verticalAlign=top;whiteSpace=wrap;rounded=0;fontSize=11;fontStyle=1;" parent="1" vertex="1">
          <mxGeometry x="495" y="430" width="150" height="30" as="geometry" />
        </mxCell>
        <mxCell id="iam-ls" value="" style="sketch=0;points=[[0,0,0],[0.25,0,0],[0.5,0,0],[0.75,0,0],[1,0,0],[0,1,0],[0.25,1,0],[0.5,1,0],[0.75,1,0],[1,1,0],[0,0.25,0],[0,0.5,0],[0,0.75,0],[1,0.25,0],[1,0.5,0],[1,0.75,0]];outlineConnect=0;fontColor=#232F3E;gradientColor=#F54749;gradientDirection=north;fillColor=#C7131F;strokeColor=#ffffff;dashed=0;verticalLabelPosition=bottom;verticalAlign=top;align=center;html=1;fontSize=12;fontStyle=1;aspect=fixed;shape=mxgraph.aws4.resourceIcon;resIcon=mxgraph.aws4.iam;" parent="1" vertex="1">
          <mxGeometry x="160" y="520" width="100" height="100" as="geometry" />
        </mxCell>
        <mxCell id="iam-label" value="IAM Roles&#xa;IRSA Simulation" style="text;html=1;strokeColor=none;fillColor=none;align=center;verticalAlign=top;whiteSpace=wrap;rounded=0;fontSize=11;fontStyle=1;" parent="1" vertex="1">
          <mxGeometry x="135" y="630" width="150" height="30" as="geometry" />
        </mxCell>
        <mxCell id="secrets-ls" value="" style="sketch=0;points=[[0,0,0],[0.25,0,0],[0.5,0,0],[0.75,0,0],[1,0,0],[0,1,0],[0.25,1,0],[0.5,1,0],[0.75,1,0],[1,1,0],[0,0.25,0],[0,0.5,0],[0,0.75,0],[1,0.25,0],[1,0.5,0],[1,0.75,0]];outlineConnect=0;fontColor=#232F3E;gradientColor=#F54749;gradientDirection=north;fillColor=#C7131F;strokeColor=#ffffff;dashed=0;verticalLabelPosition=bottom;verticalAlign=top;align=center;html=1;fontSize=12;fontStyle=1;aspect=fixed;shape=mxgraph.aws4.resourceIcon;resIcon=mxgraph.aws4.secrets_manager;" parent="1" vertex="1">
          <mxGeometry x="340" y="520" width="100" height="100" as="geometry" />
        </mxCell>
        <mxCell id="secrets-label" value="Secrets Manager&#xa;DD_API_KEY" style="text;html=1;strokeColor=none;fillColor=none;align=center;verticalAlign=top;whiteSpace=wrap;rounded=0;fontSize=11;fontStyle=1;" parent="1" vertex="1">
          <mxGeometry x="315" y="630" width="150" height="30" as="geometry" />
        </mxCell>
        <mxCell id="cloudwatch-ls" value="" style="sketch=0;points=[[0,0,0],[0.25,0,0],[0.5,0,0],[0.75,0,0],[1,0,0],[0,1,0],[0.25,1,0],[0.5,1,0],[0.75,1,0],[1,1,0],[0,0.25,0],[0,0.5,0],[0,0.75,0],[1,0.25,0],[1,0.5,0],[1,0.75,0]];outlineConnect=0;fontColor=#232F3E;gradientColor=#F34482;gradientDirection=north;fillColor=#BC1356;strokeColor=#ffffff;dashed=0;verticalLabelPosition=bottom;verticalAlign=top;align=center;html=1;fontSize=12;fontStyle=1;aspect=fixed;shape=mxgraph.aws4.resourceIcon;resIcon=mxgraph.aws4.cloudwatch;" parent="1" vertex="1">
          <mxGeometry x="520" y="520" width="100" height="100" as="geometry" />
        </mxCell>
        <mxCell id="cloudwatch-label" value="CloudWatch&#xa;Log Groups" style="text;html=1;strokeColor=none;fillColor=none;align=center;verticalAlign=top;whiteSpace=wrap;rounded=0;fontSize=11;fontStyle=1;" parent="1" vertex="1">
          <mxGeometry x="495" y="630" width="150" height="30" as="geometry" />
        </mxCell>
        <mxCell id="eks-unavailable" value="" style="sketch=0;points=[[0,0,0],[0.25,0,0],[0.5,0,0],[0.75,0,0],[1,0,0],[0,1,0],[0.25,1,0],[0.5,1,0],[0.75,1,0],[1,1,0],[0,0.25,0],[0,0.5,0],[0,0.75,0],[1,0.25,0],[1,0.5,0],[1,0.75,0]];outlineConnect=0;fontColor=#232F3E;gradientColor=none;fillColor=#ED7100;strokeColor=#ff0000;dashed=1;verticalLabelPosition=bottom;verticalAlign=top;align=center;html=1;fontSize=12;fontStyle=1;aspect=fixed;shape=mxgraph.aws4.resourceIcon;resIcon=mxgraph.aws4.eks;opacity=30;" parent="1" vertex="1">
          <mxGeometry x="340" y="720" width="100" height="100" as="geometry" />
        </mxCell>
        <mxCell id="eks-label" value="❌ EKS&#xa;(Pro Only - Failed)" style="text;html=1;strokeColor=none;fillColor=none;align=center;verticalAlign=top;whiteSpace=wrap;rounded=0;fontSize=11;fontStyle=1;fontColor=#D32F2F;" parent="1" vertex="1">
          <mxGeometry x="315" y="830" width="150" height="30" as="geometry" />
        </mxCell>
        <mxCell id="persistence-data" value="📁 Persistent Data&#xa;localstack-data/&#xa;Volume Mount" style="rounded=1;whiteSpace=wrap;html=1;fillColor=#FFF9C4;strokeColor=#F57F17;fontSize=12;fontStyle=1;align=center;" parent="1" vertex="1">
          <mxGeometry x="160" y="900" width="300" height="80" as="geometry" />
        </mxCell>
        <mxCell id="kind-section" value="kind Cluster (case-local)" style="rounded=1;whiteSpace=wrap;html=1;fillColor=#E8F5E8;strokeColor=#2E7D32;fontSize=18;fontStyle=1;verticalAlign=top;align=left;spacingLeft=30;spacingTop=20;" parent="1" vertex="1">
          <mxGeometry x="720" y="180" width="680" height="780" as="geometry" />
        </mxCell>
        <mxCell id="kind-access" value="kubectl context: kind-case-local" style="text;html=1;strokeColor=#2E7D32;fillColor=#C8E6C9;align=center;verticalAlign=middle;whiteSpace=wrap;rounded=1;fontSize=12;fontStyle=1;" parent="1" vertex="1">
          <mxGeometry x="1100" y="190" width="250" height="30" as="geometry" />
        </mxCell>
        <mxCell id="namespace-case" value="Namespace: case" style="rounded=1;whiteSpace=wrap;html=1;fillColor=#F3E5F5;strokeColor=#7B1FA2;fontSize=14;fontStyle=1;verticalAlign=top;align=left;spacingLeft=20;spacingTop=10;" parent="1" vertex="1">
          <mxGeometry x="760" y="250" width="600" height="400" as="geometry" />
        </mxCell>
        <mxCell id="backend-deployment-box" value="Backend Deployment" style="rounded=1;whiteSpace=wrap;html=1;fillColor=#E3F2FD;strokeColor=#1976D2;fontSize=12;fontStyle=1;verticalAlign=top;align=left;spacingLeft=15;spacingTop=8;" parent="1" vertex="1">
          <mxGeometry x="800" y="300" width="240" height="120" as="geometry" />
        </mxCell>
        <mxCell id="backend-pod-1" value="" style="sketch=0;html=1;dashed=0;whitespace=wrap;fillColor=#2875E2;strokeColor=#ffffff;points=[[0.005,0.63,0],[0.1,0.2,0],[0.9,0.2,0],[0.5,0,0],[0.995,0.63,0],[0.72,0.99,0],[0.5,1,0],[0.28,0.99,0]];verticalLabelPosition=bottom;align=center;verticalAlign=top;shape=mxgraph.kubernetes.icon;prIcon=pod;" parent="1" vertex="1">
          <mxGeometry x="820" y="330" width="60" height="60" as="geometry" />
        </mxCell>
        <mxCell id="be-pod-1-label" value="Backend&#xa;Pod 1" style="text;html=1;strokeColor=none;fillColor=none;align=center;verticalAlign=top;whiteSpace=wrap;rounded=0;fontSize=10;fontStyle=1;" parent="1" vertex="1">
          <mxGeometry x="815" y="395" width="70" height="25" as="geometry" />
        </mxCell>
        <mxCell id="backend-pod-2" value="" style="sketch=0;html=1;dashed=0;whitespace=wrap;fillColor=#2875E2;strokeColor=#ffffff;points=[[0.005,0.63,0],[0.1,0.2,0],[0.9,0.2,0],[0.5,0,0],[0.995,0.63,0],[0.72,0.99,0],[0.5,1,0],[0.28,0.99,0]];verticalLabelPosition=bottom;align=center;verticalAlign=top;shape=mxgraph.kubernetes.icon;prIcon=pod;" parent="1" vertex="1">
          <mxGeometry x="920" y="330" width="60" height="60" as="geometry" />
        </mxCell>
        <mxCell id="be-pod-2-label" value="Backend&#xa;Pod 2" style="text;html=1;strokeColor=none;fillColor=none;align=center;verticalAlign=top;whiteSpace=wrap;rounded=0;fontSize=10;fontStyle=1;" parent="1" vertex="1">
          <mxGeometry x="915" y="395" width="70" height="25" as="geometry" />
        </mxCell>
        <mxCell id="frontend-deployment-box" value="Frontend Deployment" style="rounded=1;whiteSpace=wrap;html=1;fillColor=#E3F2FD;strokeColor=#1976D2;fontSize=12;fontStyle=1;verticalAlign=top;align=left;spacingLeft=15;spacingTop=8;" parent="1" vertex="1">
          <mxGeometry x="800" y="450" width="120" height="100" as="geometry" />
        </mxCell>
        <mxCell id="frontend-pod" value="" style="sketch=0;html=1;dashed=0;whitespace=wrap;fillColor=#2875E2;strokeColor=#ffffff;points=[[0.005,0.63,0],[0.1,0.2,0],[0.9,0.2,0],[0.5,0,0],[0.995,0.63,0],[0.72,0.99,0],[0.5,1,0],[0.28,0.99,0]];verticalLabelPosition=bottom;align=center;verticalAlign=top;shape=mxgraph.kubernetes.icon;prIcon=pod;" parent="1" vertex="1">
          <mxGeometry x="830" y="480" width="60" height="60" as="geometry" />
        </mxCell>
        <mxCell id="fe-pod-label" value="Frontend&#xa;Pod" style="text;html=1;strokeColor=none;fillColor=none;align=center;verticalAlign=top;whiteSpace=wrap;rounded=0;fontSize=10;fontStyle=1;" parent="1" vertex="1">
          <mxGeometry x="825" y="545" width="70" height="25" as="geometry" />
        </mxCell>
        <mxCell id="mobile-deployment-box" value="Mobile Deployment" style="rounded=1;whiteSpace=wrap;html=1;fillColor=#E3F2FD;strokeColor=#1976D2;fontSize=12;fontStyle=1;verticalAlign=top;align=left;spacingLeft=15;spacingTop=8;" parent="1" vertex="1">
          <mxGeometry x="950" y="450" width="120" height="100" as="geometry" />
        </mxCell>
        <mxCell id="mobile-pod" value="" style="sketch=0;html=1;dashed=0;whitespace=wrap;fillColor=#2875E2;strokeColor=#ffffff;points=[[0.005,0.63,0],[0.1,0.2,0],[0.9,0.2,0],[0.5,0,0],[0.995,0.63,0],[0.72,0.99,0],[0.5,1,0],[0.28,0.99,0]];verticalLabelPosition=bottom;align=center;verticalAlign=top;shape=mxgraph.kubernetes.icon;prIcon=pod;" parent="1" vertex="1">
          <mxGeometry x="980" y="480" width="60" height="60" as="geometry" />
        </mxCell>
        <mxCell id="mobile-pod-label" value="Mobile&#xa;Pod" style="text;html=1;strokeColor=none;fillColor=none;align=center;verticalAlign=top;whiteSpace=wrap;rounded=0;fontSize=10;fontStyle=1;" parent="1" vertex="1">
          <mxGeometry x="975" y="545" width="70" height="25" as="geometry" />
        </mxCell>
        <mxCell id="services-box" value="Kubernetes Services" style="rounded=1;whiteSpace=wrap;html=1;fillColor=#FFF8E1;strokeColor=#FF8F00;fontSize=12;fontStyle=1;verticalAlign=top;align=left;spacingLeft=15;spacingTop=8;" parent="1" vertex="1">
          <mxGeometry x="1100" y="300" width="220" height="250" as="geometry" />
        </mxCell>
        <mxCell id="backend-svc" value="" style="sketch=0;html=1;dashed=0;whitespace=wrap;fillColor=#326CE5;strokeColor=#ffffff;points=[[0.005,0.63,0],[0.1,0.2,0],[0.9,0.2,0],[0.5,0,0],[0.995,0.63,0],[0.72,0.99,0],[0.5,1,0],[0.28,0.99,0]];verticalLabelPosition=bottom;align=center;verticalAlign=top;shape=mxgraph.kubernetes.icon;prIcon=svc;" parent="1" vertex="1">
          <mxGeometry x="1130" y="340" width="50" height="50" as="geometry" />
        </mxCell>
        <mxCell id="be-svc-label" value="backend" style="text;html=1;strokeColor=none;fillColor=none;align=center;verticalAlign=top;whiteSpace=wrap;rounded=0;fontSize=10;fontStyle=1;" parent="1" vertex="1">
          <mxGeometry x="1125" y="395" width="60" height="15" as="geometry" />
        </mxCell>
        <mxCell id="frontend-svc" value="" style="sketch=0;html=1;dashed=0;whitespace=wrap;fillColor=#326CE5;strokeColor=#ffffff;points=[[0.005,0.63,0],[0.1,0.2,0],[0.9,0.2,0],[0.5,0,0],[0.995,0.63,0],[0.72,0.99,0],[0.5,1,0],[0.28,0.99,0]];verticalLabelPosition=bottom;align=center;verticalAlign=top;shape=mxgraph.kubernetes.icon;prIcon=svc;" parent="1" vertex="1">
          <mxGeometry x="1210" y="340" width="50" height="50" as="geometry" />
        </mxCell>
        <mxCell id="fe-svc-label" value="frontend" style="text;html=1;strokeColor=none;fillColor=none;align=center;verticalAlign=top;whiteSpace=wrap;rounded=0;fontSize=10;fontStyle=1;" parent="1" vertex="1">
          <mxGeometry x="1205" y="395" width="60" height="15" as="geometry" />
        </mxCell>
        <mxCell id="mobile-svc" value="" style="sketch=0;html=1;dashed=0;whitespace=wrap;fillColor=#326CE5;strokeColor=#ffffff;points=[[0.005,0.63,0],[0.1,0.2,0],[0.9,0.2,0],[0.5,0,0],[0.995,0.63,0],[0.72,0.99,0],[0.5,1,0],[0.28,0.99,0]];verticalLabelPosition=bottom;align=center;verticalAlign=top;shape=mxgraph.kubernetes.icon;prIcon=svc;" parent="1" vertex="1">
          <mxGeometry x="1170" y="430" width="50" height="50" as="geometry" />
        </mxCell>
        <mxCell id="mobile-svc-label" value="mobile" style="text;html=1;strokeColor=none;fillColor=none;align=center;verticalAlign=top;whiteSpace=wrap;rounded=0;fontSize=10;fontStyle=1;" parent="1" vertex="1">
          <mxGeometry x="1165" y="485" width="60" height="15" as="geometry" />
        </mxCell>
        <mxCell id="ingress-nginx" value="" style="sketch=0;html=1;dashed=0;whitespace=wrap;fillColor=#FF6B00;strokeColor=#ffffff;points=[[0.005,0.63,0],[0.1,0.2,0],[0.9,0.2,0],[0.5,0,0],[0.995,0.63,0],[0.72,0.99,0],[0.5,1,0],[0.28,0.99,0]];verticalLabelPosition=bottom;align=center;verticalAlign=top;shape=mxgraph.kubernetes.icon;prIcon=ing;" parent="1" vertex="1">
          <mxGeometry x="1050" y="700" width="80" height="80" as="geometry" />
        </mxCell>
        <mxCell id="ingress-label" value="Ingress (nginx)&#xa;:8080" style="text;html=1;strokeColor=none;fillColor=none;align=center;verticalAlign=top;whiteSpace=wrap;rounded=0;fontSize=11;fontStyle=1;" parent="1" vertex="1">
          <mxGeometry x="1020" y="785" width="140" height="30" as="geometry" />
        </mxCell>
        <mxCell id="configmap-k8s" value="" style="sketch=0;html=1;dashed=0;whitespace=wrap;fillColor=#326CE5;strokeColor=#ffffff;points=[[0.005,0.63,0],[0.1,0.2,0],[0.9,0.2,0],[0.5,0,0],[0.995,0.63,0],[0.72,0.99,0],[0.5,1,0],[0.28,0.99,0]];verticalLabelPosition=bottom;align=center;verticalAlign=top;shape=mxgraph.kubernetes.icon;prIcon=cm;" parent="1" vertex="1">
          <mxGeometry x="800" y="580" width="50" height="50" as="geometry" />
        </mxCell>
        <mxCell id="cm-label" value="ConfigMap" style="text;html=1;strokeColor=none;fillColor=none;align=center;verticalAlign=top;whiteSpace=wrap;rounded=0;fontSize=10;fontStyle=1;" parent="1" vertex="1">
          <mxGeometry x="795" y="635" width="60" height="15" as="geometry" />
        </mxCell>
        <mxCell id="secret-k8s" value="" style="sketch=0;html=1;dashed=0;whitespace=wrap;fillColor=#326CE5;strokeColor=#ffffff;points=[[0.005,0.63,0],[0.1,0.2,0],[0.9,0.2,0],[0.5,0,0],[0.995,0.63,0],[0.72,0.99,0],[0.5,1,0],[0.28,0.99,0]];verticalLabelPosition=bottom;align=center;verticalAlign=top;shape=mxgraph.kubernetes.icon;prIcon=secret;" parent="1" vertex="1">
          <mxGeometry x="880" y="580" width="50" height="50" as="geometry" />
        </mxCell>
        <mxCell id="secret-label" value="Secret" style="text;html=1;strokeColor=none;fillColor=none;align=center;verticalAlign=top;whiteSpace=wrap;rounded=0;fontSize=10;fontStyle=1;" parent="1" vertex="1">
          <mxGeometry x="875" y="635" width="60" height="15" as="geometry" />
        </mxCell>
        <mxCell id="observability-section" value="Observability Stack (Docker Compose)" style="rounded=1;whiteSpace=wrap;html=1;fillColor=#FCE4EC;strokeColor=#C2185B;fontSize=18;fontStyle=1;verticalAlign=top;align=left;spacingLeft=30;spacingTop=20;" parent="1" vertex="1">
          <mxGeometry x="1440" y="180" width="460" height="780" as="geometry" />
        </mxCell>
        <mxCell id="grafana-obs" value="" style="shape=image;html=1;verticalAlign=top;verticalLabelPosition=bottom;labelBackgroundColor=#ffffff;imageAspect=0;aspect=fixed;image=https://cdn4.iconfinder.com/data/icons/logos-and-brands/512/141_Grafana_logo_logos-128.png;" parent="1" vertex="1">
          <mxGeometry x="1480" y="250" width="100" height="100" as="geometry" />
        </mxCell>
        <mxCell id="grafana-label" value="Grafana&#xa;:3100&#xa;Dashboards" style="text;html=1;strokeColor=none;fillColor=none;align=center;verticalAlign=top;whiteSpace=wrap;rounded=0;fontSize=11;fontStyle=1;" parent="1" vertex="1">
          <mxGeometry x="1455" y="355" width="150" height="45" as="geometry" />
        </mxCell>
        <mxCell id="prometheus-obs" value="" style="shape=image;html=1;verticalAlign=top;verticalLabelPosition=bottom;labelBackgroundColor=#ffffff;imageAspect=0;aspect=fixed;image=https://cdn4.iconfinder.com/data/icons/logos-and-brands/512/255_Prometheus_Logo-128.png;" parent="1" vertex="1">
          <mxGeometry x="1650" y="250" width="100" height="100" as="geometry" />
        </mxCell>
        <mxCell id="prometheus-label" value="Prometheus&#xa;:9090&#xa;Metrics" style="text;html=1;strokeColor=none;fillColor=none;align=center;verticalAlign=top;whiteSpace=wrap;rounded=0;fontSize=11;fontStyle=1;" parent="1" vertex="1">
          <mxGeometry x="1625" y="355" width="150" height="45" as="geometry" />
        </mxCell>
        <mxCell id="loki-obs" value="Loki" style="rounded=1;whiteSpace=wrap;html=1;fillColor=#FFCDD2;strokeColor=#D32F2F;fontSize=16;fontStyle=1;" parent="1" vertex="1">
          <mxGeometry x="1480" y="450" width="100" height="60" as="geometry" />
        </mxCell>
        <mxCell id="loki-label" value=":3101&#xa;Log Aggregation" style="text;html=1;strokeColor=none;fillColor=none;align=center;verticalAlign=top;whiteSpace=wrap;rounded=0;fontSize=10;fontStyle=1;" parent="1" vertex="1">
          <mxGeometry x="1455" y="515" width="150" height="30" as="geometry" />
        </mxCell>
        <mxCell id="tempo-obs" value="Tempo" style="rounded=1;whiteSpace=wrap;html=1;fillColor=#FFE0B2;strokeColor=#FF8F00;fontSize=16;fontStyle=1;" parent="1" vertex="1">
          <mxGeometry x="1650" y="450" width="100" height="60" as="geometry" />
        </mxCell>
        <mxCell id="tempo-label" value=":3102&#xa;Distributed Tracing" style="text;html=1;strokeColor=none;fillColor=none;align=center;verticalAlign=top;whiteSpace=wrap;rounded=0;fontSize=10;fontStyle=1;" parent="1" vertex="1">
          <mxGeometry x="1625" y="515" width="150" height="30" as="geometry" />
        </mxCell>
        <mxCell id="promtail-obs" value="Promtail" style="rounded=1;whiteSpace=wrap;html=1;fillColor=#E1BEE7;strokeColor=#8E24AA;fontSize=14;fontStyle=1;" parent="1" vertex="1">
          <mxGeometry x="1480" y="580" width="100" height="50" as="geometry" />
        </mxCell>
        <mxCell id="promtail-label" value="Log Collector" style="text;html=1;strokeColor=none;fillColor=none;align=center;verticalAlign=top;whiteSpace=wrap;rounded=0;fontSize=10;fontStyle=1;" parent="1" vertex="1">
          <mxGeometry x="1455" y="635" width="150" height="20" as="geometry" />
        </mxCell>
        <mxCell id="datadog-obs" value="Datadog Agent&#xa;(Optional)" style="rounded=1;whiteSpace=wrap;html=1;fillColor=#673AB7;strokeColor=#ffffff;fontColor=#ffffff;fontSize=12;fontStyle=1;" parent="1" vertex="1">
          <mxGeometry x="1650" y="580" width="100" height="50" as="geometry" />
        </mxCell>
        <mxCell id="datadog-label" value=":8126 APM" style="text;html=1;strokeColor=none;fillColor=none;align=center;verticalAlign=top;whiteSpace=wrap;rounded=0;fontSize=10;fontStyle=1;" parent="1" vertex="1">
          <mxGeometry x="1625" y="635" width="150" height="20" as="geometry" />
        </mxCell>
        <mxCell id="developer-icon" value="" style="shape=umlActor;verticalLabelPosition=bottom;verticalAlign=top;html=1;outlineConnect=0;fillColor=#FF5722;strokeColor=#ffffff;fontSize=14;fontStyle=1;" parent="1" vertex="1">
          <mxGeometry x="60" y="650" width="60" height="120" as="geometry" />
        </mxCell>
        <mxCell id="dev-label" value="Developer" style="text;html=1;strokeColor=none;fillColor=none;align=center;verticalAlign=top;whiteSpace=wrap;rounded=0;fontSize=12;fontStyle=1;" parent="1" vertex="1">
          <mxGeometry x="40" y="775" width="100" height="20" as="geometry" />
        </mxCell>
        <mxCell id="dev-to-ingress" style="edgeStyle=orthogonalEdgeStyle;rounded=0;orthogonalLoop=1;jettySize=auto;html=1;strokeWidth=4;strokeColor=#FF6B00;entryX=0;entryY=0.5;entryDx=0;entryDy=0;entryPerimeter=0;exitX=1;exitY=0.5;exitDx=0;exitDy=0;exitPerimeter=0;dashed=1;dashPattern=8 8;" parent="1" source="developer-icon" target="ingress-nginx" edge="1">
          <mxGeometry relative="1" as="geometry">
            <Array as="points">
              <mxPoint x="200" y="710" />
              <mxPoint x="200" y="740" />
              <mxPoint x="1050" y="740" />
            </Array>
          </mxGeometry>
        </mxCell>
        <mxCell id="dev-ing-label" value="HTTP :8080" style="edgeLabel;html=1;align=center;verticalAlign=middle;resizable=0;points=[];fontSize=12;fontStyle=1;fontColor=#FF6B00;labelBackgroundColor=#ffffff;" parent="dev-to-ingress" vertex="1" connectable="0">
          <mxGeometry x="0.2" y="2" relative="1" as="geometry">
            <mxPoint x="50" as="offset" />
          </mxGeometry>
        </mxCell>
        <mxCell id="ing-to-be-svc" style="edgeStyle=orthogonalEdgeStyle;rounded=0;orthogonalLoop=1;jettySize=auto;html=1;strokeWidth=3;strokeColor=#2875E2;entryX=0.5;entryY=1;entryDx=0;entryDy=0;entryPerimeter=0;exitX=0.72;exitY=0.01;exitDx=0;exitDy=0;exitPerimeter=0;" parent="1" source="ingress-nginx" target="backend-svc" edge="1">
          <mxGeometry relative="1" as="geometry" />
        </mxCell>
        <mxCell id="ing-to-fe-svc" style="edgeStyle=orthogonalEdgeStyle;rounded=0;orthogonalLoop=1;jettySize=auto;html=1;strokeWidth=3;strokeColor=#2875E2;entryX=0.5;entryY=1;entryDx=0;entryDy=0;entryPerimeter=0;exitX=0.995;exitY=0.63;exitDx=0;exitDy=0;exitPerimeter=0;" parent="1" source="ingress-nginx" target="frontend-svc" edge="1">
          <mxGeometry relative="1" as="geometry" />
        </mxCell>
        <mxCell id="ing-to-mob-svc" style="edgeStyle=orthogonalEdgeStyle;rounded=0;orthogonalLoop=1;jettySize=auto;html=1;strokeWidth=3;strokeColor=#2875E2;entryX=0.5;entryY=1;entryDx=0;entryDy=0;entryPerimeter=0;exitX=0.5;exitY=0;exitDx=0;exitDy=0;exitPerimeter=0;" parent="1" source="ingress-nginx" target="mobile-svc" edge="1">
          <mxGeometry relative="1" as="geometry" />
        </mxCell>
        <mxCell id="be-svc-to-pod1" style="edgeStyle=orthogonalEdgeStyle;rounded=0;orthogonalLoop=1;jettySize=auto;html=1;strokeWidth=2;strokeColor=#326CE5;entryX=1;entryY=0.5;entryDx=0;entryDy=0;entryPerimeter=0;exitX=0;exitY=0.5;exitDx=0;exitDy=0;exitPerimeter=0;" parent="1" source="backend-svc" target="backend-pod-1" edge="1">
          <mxGeometry relative="1" as="geometry" />
        </mxCell>
        <mxCell id="be-svc-to-pod2" style="edgeStyle=orthogonalEdgeStyle;rounded=0;orthogonalLoop=1;jettySize=auto;html=1;strokeWidth=2;strokeColor=#326CE5;entryX=1;entryY=0.5;entryDx=0;entryDy=0;entryPerimeter=0;exitX=0;exitY=0.5;exitDx=0;exitDy=0;exitPerimeter=0;" parent="1" source="backend-svc" target="backend-pod-2" edge="1">
          <mxGeometry relative="1" as="geometry" />
        </mxCell>
        <mxCell id="fe-svc-to-pod" style="edgeStyle=orthogonalEdgeStyle;rounded=0;orthogonalLoop=1;jettySize=auto;html=1;strokeWidth=2;strokeColor=#326CE5;entryX=1;entryY=0.5;entryDx=0;entryDy=0;entryPerimeter=0;exitX=0;exitY=0.5;exitDx=0;exitDy=0;exitPerimeter=0;" parent="1" source="frontend-svc" target="frontend-pod" edge="1">
          <mxGeometry relative="1" as="geometry" />
        </mxCell>
        <mxCell id="mob-svc-to-pod" style="edgeStyle=orthogonalEdgeStyle;rounded=0;orthogonalLoop=1;jettySize=auto;html=1;strokeWidth=2;strokeColor=#326CE5;entryX=1;entryY=0.5;entryDx=0;entryDy=0;entryPerimeter=0;exitX=0;exitY=0.5;exitDx=0;exitDy=0;exitPerimeter=0;" parent="1" source="mobile-svc" target="mobile-pod" edge="1">
          <mxGeometry relative="1" as="geometry" />
        </mxCell>
        <mxCell id="be-to-ddb" style="edgeStyle=orthogonalEdgeShape;rounded=0;orthogonalLoop=1;jettySize=auto;html=1;strokeWidth=4;strokeColor=#00C853;entryX=1;entryY=0.5;entryDx=0;entryDy=0;entryPerimeter=0;exitX=0;exitY=0.5;exitDx=0;exitDy=0;exitPerimeter=0;dashed=1;dashPattern=12 12;" parent="1" source="backend-pod-1" target="dynamodb-ls" edge="1">
          <mxGeometry relative="1" as="geometry">
            <Array as="points">
              <mxPoint x="700" y="360" />
              <mxPoint x="700" y="370" />
            </Array>
          </mxGeometry>
        </mxCell>
        <mxCell id="be-ddb-label" value="AWS SDK&#xa;host.docker.internal:4566" style="edgeLabel;html=1;align=center;verticalAlign=middle;resizable=0;points=[];fontSize=11;fontStyle=1;fontColor=#00C853;labelBackgroundColor=#ffffff;" parent="be-to-ddb" vertex="1" connectable="0">
          <mxGeometry x="0.1" y="2" relative="1" as="geometry">
            <mxPoint x="80" y="-15" as="offset" />
          </mxGeometry>
        </mxCell>
        <mxCell id="be-to-prometheus" style="edgeStyle=orthogonalEdgeStyle;rounded=0;orthogonalLoop=1;jettySize=auto;html=1;strokeWidth=3;strokeColor=#9C27B0;entryX=0;entryY=0.5;entryDx=0;entryDy=0;exitX=1;exitY=0.75;exitDx=0;exitDy=0;exitPerimeter=0;dashed=1;dashPattern=8 8;" parent="1" source="backend-pod-2" target="prometheus-obs" edge="1">
          <mxGeometry relative="1" as="geometry">
            <Array as="points">
              <mxPoint x="1400" y="375" />
              <mxPoint x="1400" y="300" />
            </Array>
          </mxGeometry>
        </mxCell>
        <mxCell id="be-prom-label" value="/metrics" style="edgeLabel;html=1;align=center;verticalAlign=middle;resizable=0;points=[];fontSize=11;fontStyle=1;fontColor=#9C27B0;labelBackgroundColor=#ffffff;" parent="be-to-prometheus" vertex="1" connectable="0">
          <mxGeometry x="0.1" y="2" relative="1" as="geometry">
            <mxPoint x="40" as="offset" />
          </mxGeometry>
        </mxCell>
        <mxCell id="be-to-tempo" style="edgeStyle=orthogonalEdgeStyle;rounded=0;orthogonalLoop=1;jettySize=auto;html=1;strokeWidth=3;strokeColor=#FF6B00;entryX=0;entryY=0.5;entryDx=0;entryDy=0;exitX=1;exitY=0.25;exitDx=0;exitDy=0;exitPerimeter=0;dashed=1;dashPattern=8 8;" parent="1" source="backend-pod-1" target="tempo-obs" edge="1">
          <mxGeometry relative="1" as="geometry">
            <Array as="points">
              <mxPoint x="1420" y="345" />
              <mxPoint x="1420" y="480" />
            </Array>
          </mxGeometry>
        </mxCell>
        <mxCell id="be-tempo-label" value="OTLP Traces" style="edgeLabel;html=1;align=center;verticalAlign=middle;resizable=0;points=[];fontSize=11;fontStyle=1;fontColor=#FF6B00;labelBackgroundColor=#ffffff;" parent="be-to-tempo" vertex="1" connectable="0">
          <mxGeometry x="0.1" y="2" relative="1" as="geometry">
            <mxPoint x="50" as="offset" />
          </mxGeometry>
        </mxCell>
        <mxCell id="prom-to-graf" style="edgeStyle=orthogonalEdgeStyle;rounded=0;orthogonalLoop=1;jettySize=auto;html=1;strokeWidth=2;strokeColor=#9C27B0;entryX=1;entryY=0.5;entryDx=0;entryDy=0;exitX=0;exitY=0.5;exitDx=0;exitDy=0;" parent="1" source="prometheus-obs" target="grafana-obs" edge="1">
          <mxGeometry relative="1" as="geometry" />
        </mxCell>
        <mxCell id="loki-to-graf" style="edgeStyle=orthogonalEdgeStyle;rounded=0;orthogonalLoop=1;jettySize=auto;html=1;strokeWidth=2;strokeColor=#E91E63;entryX=0.5;entryY=1;entryDx=0;entryDy=0;exitX=0.5;exitY=0;exitDx=0;exitDy=0;" parent="1" source="loki-obs" target="grafana-obs" edge="1">
          <mxGeometry relative="1" as="geometry" />
        </mxCell>
        <mxCell id="tempo-to-graf" style="edgeStyle=orthogonalEdgeStyle;rounded=0;orthogonalLoop=1;jettySize=auto;html=1;strokeWidth=2;strokeColor=#FF6B00;entryX=1;entryY=0.75;entryDx=0;entryDy=0;exitX=0;exitY=0.25;exitDx=0;exitDy=0;" parent="1" source="tempo-obs" target="grafana-obs" edge="1">
          <mxGeometry relative="1" as="geometry" />
        </mxCell>
        <mxCell id="dev-to-graf" style="edgeStyle=orthogonalEdgeStyle;rounded=0;orthogonalLoop=1;jettySize=auto;html=1;strokeWidth=3;strokeColor=#673AB7;entryX=0;entryY=0.75;entryDx=0;entryDy=0;exitX=1;exitY=0.25;exitDx=0;exitDy=0;exitPerimeter=0;dashed=1;dashPattern=8 8;" parent="1" source="developer-icon" target="grafana-obs" edge="1">
          <mxGeometry relative="1" as="geometry">
            <Array as="points">
              <mxPoint x="200" y="680" />
              <mxPoint x="200" y="1240" />
              <mxPoint x="1380" y="1240" />
              <mxPoint x="1380" y="325" />
            </Array>
          </mxGeometry>
        </mxCell>
        <mxCell id="dev-graf-label" value="View Dashboards&#xa;:3100" style="edgeLabel;html=1;align=center;verticalAlign=middle;resizable=0;points=[];fontSize=11;fontStyle=1;fontColor=#673AB7;labelBackgroundColor=#ffffff;" parent="dev-to-graf" vertex="1" connectable="0">
          <mxGeometry x="0.1" y="2" relative="1" as="geometry">
            <mxPoint x="-170" y="10" as="offset" />
          </mxGeometry>
        </mxCell>
        <mxCell id="legend-box" value="" style="rounded=1;whiteSpace=wrap;html=1;fillColor=#F5F5F5;strokeColor=#9E9E9E;" parent="1" vertex="1">
          <mxGeometry x="100" y="1020" width="1800" height="200" as="geometry" />
        </mxCell>
        <mxCell id="legend-title" value="LEGENDA - AMBIENTE LOCAL" style="text;html=1;strokeColor=none;fillColor=none;align=center;verticalAlign=middle;whiteSpace=wrap;rounded=0;fontSize=18;fontStyle=1;fontColor=#1976D2;" parent="1" vertex="1">
          <mxGeometry x="800" y="1030" width="400" height="30" as="geometry" />
        </mxCell>
        <mxCell id="leg-1" value="━━━  HTTP Traffic Flow (Developer → Ingress → Services → Pods)" style="text;html=1;strokeColor=none;fillColor=none;align=left;verticalAlign=middle;whiteSpace=wrap;rounded=0;fontSize=12;fontColor=#FF6B00;fontStyle=1" parent="1" vertex="1">
          <mxGeometry x="140" y="1080" width="400" height="25" as="geometry" />
        </mxCell>
        <mxCell id="leg-2" value="┅┅┅  AWS SDK Calls (Backend → LocalStack DynamoDB via host.docker.internal:4566)" style="text;html=1;strokeColor=none;fillColor=none;align=left;verticalAlign=middle;whiteSpace=wrap;rounded=0;fontSize=12;fontColor=#00C853;fontStyle=1" parent="1" vertex="1">
          <mxGeometry x="140" y="1110" width="550" height="25" as="geometry" />
        </mxCell>
        <mxCell id="leg-3" value="┅┅┅  Metrics Collection (/metrics → Prometheus → Grafana)" style="text;html=1;strokeColor=none;fillColor=none;align=left;verticalAlign=middle;whiteSpace=wrap;rounded=0;fontSize=12;fontColor=#9C27B0;fontStyle=1" parent="1" vertex="1">
          <mxGeometry x="140" y="1140" width="400" height="25" as="geometry" />
        </mxCell>
        <mxCell id="leg-4" value="┅┅┅  Distributed Tracing (OTLP → Tempo → Grafana)" style="text;html=1;strokeColor=none;fillColor=none;align=left;verticalAlign=middle;whiteSpace=wrap;rounded=0;fontSize=12;fontColor=#FF6B00;fontStyle=1" parent="1" vertex="1">
          <mxGeometry x="140" y="1170" width="400" height="25" as="geometry" />
        </mxCell>
        <mxCell id="leg-5" value="LocalStack Pro = AWS Services Emulator (DynamoDB, S3, ECR, IAM, Secrets, CloudWatch)" style="text;html=1;strokeColor=none;fillColor=none;align=left;verticalAlign=middle;whiteSpace=wrap;rounded=0;fontSize=12;fontStyle=1" parent="1" vertex="1">
          <mxGeometry x="750" y="1080" width="500" height="25" as="geometry" />
        </mxCell>
        <mxCell id="leg-6" value="kind = Kubernetes in Docker (real K8s cluster, no VM needed)" style="text;html=1;strokeColor=none;fillColor=none;align=left;verticalAlign=middle;whiteSpace=wrap;rounded=0;fontSize=12;fontStyle=1" parent="1" vertex="1">
          <mxGeometry x="750" y="1110" width="500" height="25" as="geometry" />
        </mxCell>
        <mxCell id="leg-7" value="Grafana Stack = Complete Observability (Metrics + Logs + Traces)" style="text;html=1;strokeColor=none;fillColor=none;align=left;verticalAlign=middle;whiteSpace=wrap;rounded=0;fontSize=12;fontStyle=1" parent="1" vertex="1">
          <mxGeometry x="750" y="1140" width="500" height="25" as="geometry" />
        </mxCell>
        <mxCell id="leg-8" value="✅ Zero AWS costs  |  ✅ Works offline  |  ✅ Production parity  |  ✅ Fast iteration" style="text;html=1;strokeColor=none;fillColor=none;align=left;verticalAlign=middle;whiteSpace=wrap;rounded=0;fontSize=12;fontStyle=1;fontColor=#2E7D32;" parent="1" vertex="1">
          <mxGeometry x="750" y="1170" width="500" height="25" as="geometry" />
        </mxCell>
      </root>
    </mxGraphModel>
  </diagram>
</mxfile>
